<?xml version="1.0" encoding="UTF-8" standalone="no"?><!DOCTYPE svg PUBLIC "-//W3C//DTD SVG 1.1//EN" "http://www.w3.org/Graphics/SVG/1.1/DTD/svg11.dtd"><svg width="100%" height="100%" viewBox="0 0 24 24" version="1.1" xmlns="http://www.w3.org/2000/svg" xmlns:xlink="http://www.w3.org/1999/xlink" xml:space="preserve" xmlns:serif="http://www.serif.com/" style="fill-rule:evenodd;clip-rule:evenodd;stroke-linejoin:round;stroke-miterlimit:2;"><rect id="favicon" x="0" y="0" width="24" height="24" style="fill:none;"/><clipPath id="_clip1"><rect x="0" y="0" width="24" height="24"/></clipPath><g clip-path="url(#_clip1)"><g><path d="M24,3l-0,18c-0,1.656 -1.344,3 -3,3l-18,0c-1.656,0 -3,-1.344 -3,-3l0,-18c0,-1.656 1.344,-3 3,-3l18,0c1.656,0 3,1.344 3,3Z"/><path d="M20.4,6c-0,0.552 -0.448,1 -1,1l-15.4,0c-0.552,0 -1,-0.448 -1,-1c-0,-0.552 0.448,-1 1,-1l15.4,0c0.552,0 1,0.448 1,1Z" style="fill:#fff;fill-opacity:0.6;"/><path d="M14.6,12c-0,0.552 -0.448,1 -1,1l-9.6,0c-0.552,0 -1,-0.448 -1,-1c-0,-0.552 0.448,-1 1,-1l9.6,0c0.552,0 1,0.448 1,1Z" style="fill:#fff;fill-opacity:0.6;"/><path d="M17.5,18c-0,0.552 -0.448,1 -1,1l-12.5,0c-0.552,0 -1,-0.448 -1,-1c-0,-0.552 0.448,-1 1,-1l12.5,0c0.552,0 1,0.448 1,1Z" style="fill:#fff;"/></g></g></svg>