<?xml version="1.0" encoding="UTF-8" standalone="no"?>
<!DOCTYPE svg PUBLIC "-//W3C//DTD SVG 1.1//EN" "http://www.w3.org/Graphics/SVG/1.1/DTD/svg11.dtd">
<svg width="100%" height="100%" viewBox="0 0 72 72" version="1.1" xmlns="http://www.w3.org/2000/svg" xmlns:xlink="http://www.w3.org/1999/xlink" xml:space="preserve" xmlns:serif="http://www.serif.com/" style="fill-rule:evenodd;clip-rule:evenodd;stroke-linejoin:round;stroke-miterlimit:2;">
    <rect id="app_settings" x="0" y="-0" width="72" height="72" style="fill:none;"/>
    <g>
        <path d="M63.216,30.099L56.269,26.242C55.781,25.227 55.218,24.251 54.585,23.321L54.719,15.371C51.772,12.699 48.286,10.69 44.497,9.479L37.684,13.568C36.561,13.483 35.434,13.482 34.312,13.565L27.494,9.475C23.707,10.69 20.224,12.705 17.281,15.381L17.415,23.326C16.78,24.255 16.216,25.231 15.727,26.245L8.775,30.104C7.935,33.991 7.938,38.015 8.784,41.901L15.731,45.758C16.219,46.773 16.782,47.749 17.415,48.679L17.281,56.629C20.228,59.301 23.714,61.31 27.503,62.521L34.316,58.432C35.439,58.517 36.566,58.518 37.688,58.435L44.506,62.525C48.293,61.31 51.776,59.295 54.719,56.619L54.585,48.674C55.22,47.745 55.784,46.769 56.273,45.755L63.225,41.896C64.065,38.009 64.062,33.985 63.216,30.099ZM36,48.853C28.949,48.853 23.147,43.051 23.147,36C23.147,28.949 28.949,23.147 36,23.147C43.051,23.147 48.853,28.949 48.853,36C48.853,36 48.853,36 48.853,36C48.853,43.051 43.051,48.853 36,48.853C36,48.853 36,48.853 36,48.853Z" style="fill-opacity:0.2;fill-rule:nonzero;"/>
        <path d="M36,21.005C27.774,21.005 21.005,27.774 21.005,36C21.005,44.226 27.774,50.995 36,50.995C44.226,50.995 50.995,44.226 50.995,36C50.986,27.777 44.223,21.014 36,21.005ZM36,46.711C30.124,46.711 25.289,41.876 25.289,36C25.289,30.124 30.124,25.289 36,25.289C41.876,25.289 46.711,30.124 46.711,36C46.704,41.873 41.873,46.704 36,46.711L36,46.711ZM65.31,29.644C65.179,29.042 64.795,28.525 64.256,28.226L57.889,24.692C57.537,24.009 57.152,23.34 56.738,22.694L56.861,15.407C56.871,14.791 56.615,14.199 56.159,13.785C52.989,10.902 49.234,8.737 45.151,7.439C44.564,7.252 43.924,7.326 43.395,7.643L37.151,11.389C36.383,11.353 35.612,11.352 34.845,11.387L28.596,7.638C28.068,7.321 27.427,7.246 26.84,7.434C22.759,8.738 19.007,10.908 15.841,13.795C15.385,14.209 15.129,14.801 15.139,15.417L15.262,22.697C14.847,23.344 14.46,24.012 14.107,24.694L7.736,28.231C7.197,28.53 6.812,29.047 6.682,29.65C5.77,33.836 5.773,38.171 6.69,42.356C6.821,42.958 7.205,43.475 7.744,43.774L14.111,47.308C14.463,47.991 14.848,48.66 15.262,49.306L15.139,56.593C15.129,57.209 15.385,57.801 15.841,58.215C19.011,61.098 22.766,63.263 26.849,64.561C27.436,64.748 28.076,64.674 28.605,64.357L34.849,60.611C35.617,60.647 36.388,60.648 37.155,60.613L43.404,64.362C43.932,64.679 44.573,64.754 45.16,64.566C49.241,63.262 52.993,61.092 56.159,58.205C56.615,57.791 56.871,57.199 56.861,56.583L56.738,49.303C57.153,48.656 57.54,47.988 57.893,47.306L64.264,43.769C64.803,43.47 65.188,42.953 65.318,42.35C66.23,38.164 66.227,33.829 65.31,29.644L65.31,29.644ZM61.316,40.505L55.233,43.882C54.847,44.097 54.536,44.427 54.344,44.825C53.901,45.742 53.391,46.625 52.816,47.465C52.566,47.832 52.436,48.267 52.443,48.71L52.56,55.663C50.248,57.62 47.605,59.149 44.756,60.177L38.79,56.598C38.458,56.398 38.077,56.292 37.688,56.292C37.635,56.292 37.582,56.294 37.529,56.298C36.514,56.374 35.494,56.373 34.479,56.296C34.036,56.263 33.595,56.367 33.214,56.595L27.251,60.173C24.401,59.149 21.755,57.625 19.44,55.672L19.557,48.716C19.564,48.273 19.435,47.839 19.186,47.473C18.613,46.632 18.104,45.748 17.662,44.831C17.471,44.431 17.159,44.1 16.771,43.885L10.692,40.51C10.152,37.529 10.15,34.476 10.684,31.495L16.767,28.118C17.153,27.903 17.464,27.573 17.656,27.175C18.099,26.258 18.609,25.375 19.184,24.535C19.434,24.168 19.564,23.733 19.557,23.29L19.44,16.337C21.752,14.38 24.395,12.851 27.244,11.823L33.21,15.402C33.589,15.63 34.03,15.735 34.471,15.702C35.486,15.626 36.506,15.627 37.521,15.704C37.964,15.738 38.406,15.633 38.786,15.405L44.749,11.827C47.599,12.851 50.245,14.375 52.56,16.328L52.443,23.284C52.436,23.727 52.565,24.161 52.814,24.527C53.387,25.368 53.896,26.252 54.338,27.169C54.529,27.569 54.841,27.9 55.229,28.115L61.309,31.49C61.848,34.471 61.85,37.524 61.316,40.505L61.316,40.505Z" style="fill-rule:nonzero;"/>
    </g>
</svg>
