<?xml version="1.0" encoding="UTF-8" standalone="no"?>
<!DOCTYPE svg PUBLIC "-//W3C//DTD SVG 1.1//EN" "http://www.w3.org/Graphics/SVG/1.1/DTD/svg11.dtd">
<svg width="100%" height="100%" viewBox="0 0 72 72" version="1.1" xmlns="http://www.w3.org/2000/svg" xmlns:xlink="http://www.w3.org/1999/xlink" xml:space="preserve" xmlns:serif="http://www.serif.com/" style="fill-rule:evenodd;clip-rule:evenodd;stroke-linejoin:round;stroke-miterlimit:2;">
    <rect id="banner_warning" x="0" y="-0" width="72" height="72" style="fill:none;"/>
    <path d="M65.147,53.7L42.231,11.491C40.997,9.224 38.613,7.807 36.031,7.807C33.449,7.807 31.066,9.224 29.832,11.491L6.892,53.7C6.307,54.75 6,55.932 6,57.135C6,61.007 9.186,64.193 13.058,64.193C13.073,64.193 13.088,64.193 13.104,64.193L58.935,64.193C58.937,64.193 58.94,64.193 58.942,64.193C62.814,64.193 66,61.007 66,57.135C66,55.96 65.707,54.803 65.147,53.77L65.147,53.7ZM32.514,23.584C32.514,21.648 34.107,20.055 36.043,20.055C37.979,20.055 39.572,21.648 39.572,23.584L39.572,39.795C39.572,41.731 37.979,43.324 36.043,43.324C34.107,43.324 32.514,41.731 32.514,39.795L32.514,23.584ZM36.137,55.37C33.917,55.37 32.09,53.543 32.09,51.323C32.09,49.103 33.917,47.277 36.137,47.277C38.357,47.277 40.184,49.103 40.184,51.323C40.184,53.543 38.357,55.37 36.137,55.37Z" style="fill-rule:nonzero;"/>
</svg>
