<?xml version="1.0" encoding="UTF-8" standalone="no"?>
<!DOCTYPE svg PUBLIC "-//W3C//DTD SVG 1.1//EN" "http://www.w3.org/Graphics/SVG/1.1/DTD/svg11.dtd">
<svg width="100%" height="100%" viewBox="0 0 72 72" version="1.1" xmlns="http://www.w3.org/2000/svg" xmlns:xlink="http://www.w3.org/1999/xlink" xml:space="preserve" xmlns:serif="http://www.serif.com/" style="fill-rule:evenodd;clip-rule:evenodd;stroke-linejoin:round;stroke-miterlimit:2;">
    <rect id="banner_info" x="0" y="-0" width="72" height="72" style="fill:none;"/>
    <path d="M36,6C19.542,6 6,19.542 6,36C6,52.458 19.542,66 36,66C52.458,66 66,52.458 66,36C66,19.542 52.458,6 36,6ZM39,51C39,52.646 37.646,54 36,54C34.354,54 33,52.646 33,51L33,33C33,31.354 34.354,30 36,30C37.646,30 39,31.354 39,33L39,51ZM36,24C33.531,24 31.5,21.969 31.5,19.5C31.5,17.031 33.531,15 36,15C38.469,15 40.5,17.031 40.5,19.5C40.5,21.969 38.469,24 36,24Z" style="fill-rule:nonzero;"/>
</svg>
