<?xml version="1.0" encoding="UTF-8" standalone="no"?>
<!DOCTYPE svg PUBLIC "-//W3C//DTD SVG 1.1//EN" "http://www.w3.org/Graphics/SVG/1.1/DTD/svg11.dtd">
<svg width="100%" height="100%" viewBox="0 0 72 72" version="1.1" xmlns="http://www.w3.org/2000/svg" xmlns:xlink="http://www.w3.org/1999/xlink" xml:space="preserve" xmlns:serif="http://www.serif.com/" style="fill-rule:evenodd;clip-rule:evenodd;stroke-linejoin:round;stroke-miterlimit:2;">
    <rect id="document_description" x="0" y="-0" width="72" height="72" style="fill:none;"/>
    <g id="icons_Q2">
        <path d="M60,12L60,60L12,60L12,12L60,12M63,6L9,6C7.354,6 6,7.354 6,9L6,63C6,64.646 7.354,66 9,66L63,66C64.646,66 66,64.646 66,63L66,9C66,7.354 64.646,6 63,6Z" style="fill-rule:nonzero;"/>
        <path d="M51,45L21,45C19.354,45 18,46.354 18,48C18,49.646 19.354,51 21,51L51,51C52.646,51 54,49.646 54,48C54,46.354 52.646,45 51,45Z" style="fill-rule:nonzero;"/>
        <path d="M51,21L21,21C19.354,21 18,22.354 18,24C18,25.646 19.354,27 21,27L51,27C52.646,27 54,25.646 54,24C54,22.354 52.646,21 51,21Z" style="fill-rule:nonzero;"/>
        <path d="M51,33L21,33C19.354,33 18,34.354 18,36C18,37.646 19.354,39 21,39L51,39C52.646,39 54,37.646 54,36C54,34.354 52.646,33 51,33Z" style="fill-rule:nonzero;"/>
    </g>
</svg>
