<?xml version="1.0" encoding="UTF-8" standalone="no"?>
<!DOCTYPE svg PUBLIC "-//W3C//DTD SVG 1.1//EN" "http://www.w3.org/Graphics/SVG/1.1/DTD/svg11.dtd">
<svg width="100%" height="100%" viewBox="0 0 72 72" version="1.1" xmlns="http://www.w3.org/2000/svg" xmlns:xlink="http://www.w3.org/1999/xlink" xml:space="preserve" xmlns:serif="http://www.serif.com/" style="fill-rule:evenodd;clip-rule:evenodd;stroke-linejoin:round;stroke-miterlimit:2;">
    <rect id="document_revert" x="0" y="-0" width="72" height="72" style="fill:none;"/>
    <path d="M6.843,29.636C6.79,29.592 6.739,29.545 6.689,29.496C6.684,29.492 6.679,29.488 6.675,29.483C6.669,29.477 6.664,29.471 6.658,29.465C6.611,29.417 6.565,29.367 6.523,29.315C6.499,29.286 6.478,29.256 6.456,29.226C6.433,29.195 6.41,29.166 6.388,29.134C6.365,29.099 6.345,29.063 6.324,29.028C6.307,28.999 6.288,28.971 6.273,28.941C6.253,28.905 6.237,28.868 6.219,28.83C6.205,28.799 6.189,28.769 6.176,28.737C6.161,28.701 6.149,28.664 6.136,28.628C6.124,28.593 6.11,28.559 6.1,28.524C6.088,28.487 6.08,28.45 6.071,28.412C6.062,28.377 6.052,28.342 6.045,28.305C6.036,28.262 6.031,28.218 6.025,28.174C6.021,28.143 6.015,28.113 6.012,28.082C6.004,28.006 6,27.929 6,27.853L6,14.03C6,12.766 7.04,11.726 8.304,11.726C9.568,11.726 10.608,12.766 10.608,14.03L10.608,22.292L16.45,16.45C27.182,5.742 44.818,5.742 55.55,16.45C55.983,16.882 56.226,17.469 56.226,18.08C56.226,19.344 55.186,20.384 53.922,20.384C53.311,20.384 52.724,20.141 52.292,19.708C43.348,10.785 28.652,10.785 19.708,19.708L13.866,25.55L22.128,25.55C23.392,25.55 24.432,26.59 24.432,27.854C24.432,29.118 23.392,30.158 22.128,30.158L8.304,30.158C8.228,30.158 8.152,30.154 8.077,30.147C8.043,30.143 8.01,30.137 7.976,30.132C7.935,30.126 7.894,30.122 7.854,30.114C7.815,30.106 7.778,30.095 7.74,30.086C7.705,30.077 7.67,30.069 7.635,30.059C7.598,30.048 7.562,30.034 7.526,30.02C7.491,30.008 7.456,29.997 7.422,29.983C7.388,29.969 7.356,29.952 7.323,29.937C7.288,29.92 7.252,29.904 7.218,29.886C7.186,29.869 7.156,29.85 7.126,29.832C7.092,29.811 7.058,29.792 7.025,29.77C6.991,29.748 6.96,29.723 6.927,29.698C6.899,29.678 6.871,29.658 6.843,29.636ZM65.988,43.918C65.985,43.887 65.979,43.857 65.975,43.826C65.969,43.782 65.964,43.738 65.955,43.695C65.948,43.658 65.938,43.623 65.929,43.588C65.92,43.55 65.912,43.513 65.9,43.476C65.89,43.441 65.876,43.407 65.864,43.372C65.851,43.336 65.839,43.299 65.824,43.263C65.811,43.231 65.795,43.201 65.781,43.17C65.763,43.133 65.747,43.095 65.727,43.059C65.712,43.029 65.693,43.001 65.676,42.972C65.655,42.937 65.635,42.901 65.612,42.866C65.59,42.834 65.567,42.805 65.544,42.774C65.522,42.744 65.501,42.714 65.477,42.685C65.435,42.633 65.389,42.583 65.342,42.535C65.336,42.529 65.331,42.523 65.325,42.517C65.321,42.512 65.316,42.508 65.311,42.504C65.261,42.455 65.21,42.408 65.157,42.364C65.129,42.342 65.101,42.323 65.073,42.302C65.041,42.278 65.009,42.252 64.975,42.23C64.943,42.208 64.909,42.189 64.876,42.169C64.844,42.151 64.814,42.131 64.782,42.114C64.748,42.096 64.714,42.081 64.679,42.065C64.645,42.049 64.612,42.032 64.577,42.017C64.544,42.004 64.511,41.993 64.478,41.981C64.44,41.967 64.403,41.953 64.364,41.941C64.331,41.931 64.298,41.924 64.265,41.916C64.225,41.905 64.186,41.894 64.146,41.886C64.108,41.879 64.07,41.875 64.032,41.869C63.996,41.864 63.96,41.857 63.923,41.853C63.856,41.847 63.789,41.844 63.721,41.843C63.713,41.843 63.705,41.842 63.696,41.842L49.872,41.842C48.608,41.842 47.568,42.882 47.568,44.146C47.568,45.41 48.608,46.45 49.872,46.45L58.134,46.45L52.292,52.292C43.348,61.215 28.652,61.215 19.708,52.292C19.277,51.861 18.691,51.618 18.08,51.618C16.816,51.618 15.776,52.658 15.776,53.922C15.776,54.532 16.019,55.118 16.45,55.55C27.182,66.258 44.818,66.258 55.55,55.55L61.392,49.708L61.392,57.97C61.392,59.234 62.432,60.274 63.696,60.274C64.96,60.274 66,59.234 66,57.97L66,44.147C66,44.071 65.996,43.994 65.988,43.918Z" style="fill-rule:nonzero;"/>
</svg>
