<?xml version="1.0" encoding="UTF-8" standalone="no"?>
<!DOCTYPE svg PUBLIC "-//W3C//DTD SVG 1.1//EN" "http://www.w3.org/Graphics/SVG/1.1/DTD/svg11.dtd">
<svg width="100%" height="100%" viewBox="0 0 72 72" version="1.1" xmlns="http://www.w3.org/2000/svg" xmlns:xlink="http://www.w3.org/1999/xlink" xml:space="preserve" xmlns:serif="http://www.serif.com/" style="fill-rule:evenodd;clip-rule:evenodd;stroke-linejoin:round;stroke-miterlimit:2;">
    <rect id="document_save" x="0" y="-0" width="72" height="72" style="fill:none;"/>
    <g>
        <path d="M63.5,24.534L63.5,60.999C63.5,62.37 62.371,63.499 61,63.499L51,63.501L51,43.501C51,42.13 49.871,41.001 48.5,41.001L23.5,41.001C22.129,41.001 21,42.13 21,43.501L21,63.501L11,63.499C9.629,63.499 8.5,62.37 8.5,60.999C8.5,60.999 8.5,10.999 8.5,10.999C8.5,9.627 9.629,8.499 11,8.499C11,8.499 47.464,8.499 47.464,8.499C48.127,8.499 48.764,8.762 49.232,9.231L62.768,22.767C63.236,23.235 63.5,23.871 63.5,24.534Z" style="fill-opacity:0.2;fill-rule:nonzero;"/>
        <path d="M64.536,20.999L51,7.464C50.065,6.523 48.791,5.995 47.465,5.999L11,5.999C8.258,6.002 6.003,8.257 6,10.999L6,60.999C6.003,63.74 8.258,65.995 11,65.999L20.946,65.999C20.964,65.999 20.982,66.001 21,66.001C21.018,66.001 21.036,65.999 21.054,65.999L50.946,65.999C50.964,65.999 50.982,66.001 51,66.001C51.018,66.001 51.036,65.999 51.054,65.999L61,65.999C63.742,65.995 65.997,63.74 66,60.999L66,24.534C66.004,23.208 65.476,21.934 64.536,20.999ZM48.5,60.999L23.5,60.999L23.5,43.501L48.5,43.501L48.5,60.999ZM61,24.534L61,60.999L53.5,60.999L53.5,43.501C53.497,40.76 51.242,38.505 48.5,38.501L23.5,38.501C20.758,38.505 18.503,40.76 18.5,43.501L18.5,60.999L11,60.999L11,10.999L47.464,10.999L61,24.534L61,24.534L63.5,24.534L61,24.534ZM46,18.502C46,19.873 44.871,21.002 43.5,21.002L26,21.002C24.629,21.002 23.5,19.873 23.5,18.502C23.5,17.13 24.629,16.002 26,16.002L43.5,16.002C44.871,16.002 46,17.13 46,18.502Z" style="fill-rule:nonzero;"/>
    </g>
</svg>
