<?xml version="1.0" encoding="UTF-8" standalone="no"?>
<!DOCTYPE svg PUBLIC "-//W3C//DTD SVG 1.1//EN" "http://www.w3.org/Graphics/SVG/1.1/DTD/svg11.dtd">
<svg width="100%" height="100%" viewBox="0 0 72 72" version="1.1" xmlns="http://www.w3.org/2000/svg" xmlns:xlink="http://www.w3.org/1999/xlink" xml:space="preserve" xmlns:serif="http://www.serif.com/" style="fill-rule:evenodd;clip-rule:evenodd;stroke-linejoin:round;stroke-miterlimit:2;">
    <rect id="document_save_preview" x="0" y="-0" width="72" height="72" style="fill:none;"/>
    <path d="M54.226,37.153C54.488,36.745 54.784,36.359 55.113,36C54.546,35.387 54.074,34.693 53.71,33.941C52.452,31.345 52.452,28.299 52.452,25.355C52.452,19.079 52.006,17.613 47.613,17.613C46.02,17.613 44.71,16.302 44.71,14.71C44.71,13.117 46.02,11.806 47.613,11.806C52.244,11.806 55.403,13.476 57,16.769C58.258,19.365 58.258,22.41 58.258,25.355C58.258,31.631 58.703,33.097 63.097,33.097C64.689,33.097 66,34.407 66,36C66,37.593 64.689,38.903 63.097,38.903C61.694,38.903 60.694,39.053 59.982,39.46C58.197,38.363 56.266,37.589 54.226,37.153ZM18.29,33.941C17.93,34.692 17.461,35.386 16.899,36C17.461,36.614 17.93,37.308 18.29,38.059C19.548,40.655 19.548,43.701 19.548,46.645C19.548,52.921 19.994,54.387 24.387,54.387C25.98,54.387 27.29,55.698 27.29,57.29C27.29,58.883 25.98,60.194 24.387,60.194C19.756,60.194 16.597,58.524 15,55.231C13.742,52.635 13.742,49.59 13.742,46.645C13.742,40.369 13.297,38.903 8.903,38.903C7.311,38.903 6,37.593 6,36C6,34.407 7.311,33.097 8.903,33.097C13.297,33.097 13.742,31.631 13.742,25.355C13.742,22.41 13.742,19.365 15,16.769C16.597,13.476 19.756,11.806 24.387,11.806C25.98,11.806 27.29,13.117 27.29,14.71C27.29,16.302 25.98,17.613 24.387,17.613C19.994,17.613 19.548,19.079 19.548,25.355C19.548,28.299 19.548,31.345 18.29,33.941Z"/>
    <path d="M34.599,48.725C34.602,48.718 34.605,48.711 34.609,48.703C34.728,48.434 35.845,46.049 38.225,43.669C41.51,40.384 45.661,38.65 50.228,38.65C54.795,38.65 58.946,40.384 62.231,43.669C64.693,46.131 65.798,48.591 65.847,48.703C66.051,49.161 66.051,49.684 65.847,50.142C65.798,50.254 64.693,52.713 62.231,55.175C58.946,58.459 54.795,60.194 50.228,60.194C45.661,60.194 41.51,58.459 38.225,55.175C35.763,52.713 34.658,50.254 34.609,50.142C34.408,49.692 34.405,49.178 34.599,48.725ZM50.228,56.65C57.361,56.65 61.072,51.411 62.224,49.423C61.523,48.218 60.666,47.109 59.676,46.126C57.044,43.518 53.867,42.194 50.228,42.194C46.59,42.194 43.412,43.518 40.781,46.126C39.792,47.108 38.938,48.216 38.239,49.422C38.938,50.626 39.792,51.734 40.781,52.717C43.412,55.325 46.59,56.65 50.228,56.65ZM50.228,42.65C53.942,42.653 56.996,45.708 57,49.421C57,53.136 53.943,56.194 50.228,56.194C46.513,56.194 43.456,53.137 43.456,49.422C43.456,45.707 46.513,42.65 50.228,42.65ZM50.228,52.65C51.999,52.65 53.456,51.192 53.456,49.422C53.456,47.651 51.999,46.194 50.228,46.194C48.457,46.194 47,47.651 47,49.422C47,51.192 48.457,52.65 50.228,52.65Z"/>
    <path d="M34.599,48.725C34.602,48.718 34.605,48.711 34.609,48.703C34.728,48.434 35.845,46.049 38.225,43.669C41.51,40.384 45.661,38.65 50.228,38.65C54.795,38.65 58.946,40.384 62.231,43.669C64.693,46.131 65.798,48.591 65.847,48.703C66.051,49.161 66.051,49.684 65.847,50.142C65.798,50.254 64.693,52.713 62.231,55.175C58.946,58.459 54.795,60.194 50.228,60.194C45.661,60.194 41.51,58.459 38.225,55.175C35.763,52.713 34.658,50.254 34.609,50.142C34.408,49.692 34.405,49.178 34.599,48.725ZM50.228,56.65C57.361,56.65 61.072,51.411 62.224,49.423C61.523,48.218 60.666,47.109 59.676,46.126C57.044,43.518 53.867,42.194 50.228,42.194C46.59,42.194 43.412,43.518 40.781,46.126C39.792,47.108 38.938,48.216 38.239,49.422C38.938,50.626 39.792,51.734 40.781,52.717C43.412,55.325 46.59,56.65 50.228,56.65ZM50.228,42.65C53.942,42.653 56.996,45.708 57,49.421C57,53.136 53.943,56.194 50.228,56.194C46.513,56.194 43.456,53.137 43.456,49.422C43.456,45.707 46.513,42.65 50.228,42.65ZM50.228,52.65C51.999,52.65 53.456,51.192 53.456,49.422C53.456,47.651 51.999,46.194 50.228,46.194C48.457,46.194 47,47.651 47,49.422C47,51.192 48.457,52.65 50.228,52.65Z"/>
</svg>
