<?xml version="1.0" encoding="UTF-8" standalone="no"?>
<!DOCTYPE svg PUBLIC "-//W3C//DTD SVG 1.1//EN" "http://www.w3.org/Graphics/SVG/1.1/DTD/svg11.dtd">
<svg width="100%" height="100%" viewBox="0 0 72 72" version="1.1" xmlns="http://www.w3.org/2000/svg" xmlns:xlink="http://www.w3.org/1999/xlink" xml:space="preserve" xmlns:serif="http://www.serif.com/" style="fill-rule:evenodd;clip-rule:evenodd;stroke-linejoin:round;stroke-miterlimit:2;">
    <rect id="document_remove_unknown_field" x="0" y="-0" width="72" height="72" style="fill:none;"/>
    <g>
        <path d="M55.385,18.769L55.385,59.692C55.385,60.874 54.412,61.846 53.231,61.846L18.769,61.846C17.588,61.846 16.615,60.874 16.615,59.692L16.615,18.769L55.385,18.769Z" style="fill-opacity:0.2;fill-rule:nonzero;"/>
        <path d="M59.692,16.615L48.924,16.615L48.924,14.462C48.92,10.918 46.006,8.004 42.463,8L29.54,8C25.996,8.004 23.082,10.918 23.078,14.462L23.078,16.615L12.308,16.615C11.126,16.615 10.154,17.588 10.154,18.769C10.154,19.951 11.126,20.923 12.308,20.923L14.462,20.923L14.462,59.692C14.464,62.054 16.407,63.997 18.769,64L53.231,64C55.593,63.997 57.536,62.054 57.538,59.692L57.538,20.923L59.692,20.923C60.874,20.923 61.846,19.951 61.846,18.769C61.846,17.588 60.874,16.615 59.692,16.615ZM27.386,14.462C27.387,13.28 28.358,12.309 29.54,12.308L42.463,12.308C43.644,12.309 44.615,13.28 44.616,14.462L44.616,16.615L27.386,16.615L27.386,14.462ZM53.231,59.692L18.769,59.692L18.769,20.923L53.231,20.923L53.231,59.692Z" style="fill-rule:nonzero;"/>
        <path d="M29.54,29.538C28.358,29.538 27.386,30.511 27.386,31.692L27.386,48.923C27.386,50.105 28.358,51.077 29.54,51.077C30.721,51.077 31.693,50.105 31.693,48.923L31.693,31.692C31.693,30.511 30.721,29.538 29.54,29.538Z" style="fill-rule:nonzero;"/>
        <path d="M42.463,29.538C41.281,29.538 40.309,30.511 40.309,31.692L40.309,48.923C40.309,50.105 41.281,51.077 42.463,51.077C43.644,51.077 44.616,50.105 44.616,48.923L44.616,31.692C44.616,30.511 43.644,29.538 42.463,29.538Z" style="fill-rule:nonzero;"/>
    </g>
</svg>
