<?xml version="1.0" encoding="UTF-8" standalone="no"?>
<!DOCTYPE svg PUBLIC "-//W3C//DTD SVG 1.1//EN" "http://www.w3.org/Graphics/SVG/1.1/DTD/svg11.dtd">
<svg width="100%" height="100%" viewBox="0 0 72 72" version="1.1" xmlns="http://www.w3.org/2000/svg" xmlns:xlink="http://www.w3.org/1999/xlink" xml:space="preserve" xmlns:serif="http://www.serif.com/" style="fill-rule:evenodd;clip-rule:evenodd;stroke-linejoin:round;stroke-miterlimit:2;">
    <rect id="document_editor_main" x="0" y="-0" width="72" height="72" style="fill:none;"/>
    <g>
        <g>
            <path d="M12.223,23.268L59.774,23.268C63.212,23.268 66,20.193 66,16.393C66,12.59 63.212,9.511 59.774,9.511L12.223,9.511C8.794,9.511 6,12.59 6,16.393C6,20.194 8.794,23.268 12.223,23.268ZM14.53,12.16C16.868,12.16 18.766,14.055 18.766,16.393C18.766,18.731 16.871,20.626 14.53,20.626C12.195,20.626 10.297,18.731 10.297,16.393C10.297,14.055 12.195,12.16 14.53,12.16Z" style="fill:rgb(1,0,2);fill-rule:nonzero;"/>
            <path d="M59.774,29.123L12.223,29.123C8.794,29.123 6,32.205 6,36.005C6,39.806 8.794,42.88 12.223,42.88L59.774,42.88C63.212,42.88 66,39.806 66,36.005C66,32.205 63.212,29.123 59.774,29.123ZM44.671,40.238C42.333,40.238 40.438,38.343 40.438,36.005C40.438,33.667 42.33,31.772 44.671,31.772C47.011,31.772 48.906,33.667 48.906,36.005C48.903,38.343 47.008,40.238 44.671,40.238Z" style="fill:rgb(1,0,2);fill-rule:nonzero;"/>
            <path d="M59.774,48.732L12.223,48.732C8.794,48.732 6,51.814 6,55.615C6,59.412 8.794,62.494 12.223,62.489L59.774,62.489C63.212,62.489 66,59.412 66,55.615C66,51.817 63.212,48.732 59.774,48.732ZM31.663,59.848C29.325,59.848 27.43,57.953 27.43,55.612C27.43,53.272 29.322,51.379 31.663,51.379C34.003,51.379 35.896,53.272 35.896,55.612C35.896,57.953 34.001,59.848 31.663,59.848Z" style="fill:rgb(1,0,2);fill-rule:nonzero;"/>
        </g>
    </g>
</svg>
