<?xml version="1.0" encoding="UTF-8" standalone="no"?>
<!DOCTYPE svg PUBLIC "-//W3C//DTD SVG 1.1//EN" "http://www.w3.org/Graphics/SVG/1.1/DTD/svg11.dtd">
<svg width="100%" height="100%" viewBox="0 0 72 72" version="1.1" xmlns="http://www.w3.org/2000/svg" xmlns:xlink="http://www.w3.org/1999/xlink" xml:space="preserve" xmlns:serif="http://www.serif.com/" style="fill-rule:evenodd;clip-rule:evenodd;stroke-linejoin:round;stroke-miterlimit:2;">
    <rect id="document_default_layout" x="0" y="-0" width="72" height="72" style="fill:none;"/>
    <g>
        <path d="M30,7.095C30.796,7.095 31.559,7.411 32.121,7.973C32.684,8.536 33,9.299 33,10.095C33,17.023 33,34.072 33,41C33,41.796 32.684,42.559 32.121,43.121C31.559,43.684 30.796,44 30,44C24.805,44 14.195,44 9,44C8.204,44 7.441,43.684 6.879,43.121C6.316,42.559 6,41.796 6,41C6,34.072 6,17.023 6,10.095C6,9.299 6.316,8.536 6.879,7.973C7.441,7.411 8.204,7.095 9,7.095C14.195,7.095 24.805,7.095 30,7.095Z"/>
        <path d="M63,64.905C63.796,64.905 64.559,64.589 65.121,64.027C65.684,63.464 66,62.701 66,61.905C66,55.646 66,41.259 66,35C66,34.204 65.684,33.441 65.121,32.879C64.559,32.316 63.796,32 63,32C57.805,32 47.195,32 42,32C41.204,32 40.441,32.316 39.879,32.879C39.316,33.441 39,34.204 39,35C39,41.259 39,55.646 39,61.905C39,62.701 39.316,63.464 39.879,64.027C40.441,64.589 41.204,64.905 42,64.905C47.195,64.905 57.805,64.905 63,64.905Z"/>
        <path d="M30,50C30.796,50 31.559,50.316 32.121,50.879C32.684,51.441 33,52.204 33,53C33,55.591 33,59.315 33,61.905C33,62.701 32.684,63.464 32.121,64.027C31.559,64.589 30.796,64.905 30,64.905C24.805,64.905 14.195,64.905 9,64.905C8.204,64.905 7.441,64.589 6.879,64.027C6.316,63.464 6,62.701 6,61.905C6,59.315 6,55.591 6,53C6,52.204 6.316,51.441 6.879,50.879C7.441,50.316 8.204,50 9,50C14.195,50 24.805,50 30,50Z"/>
        <path d="M63,26C63.796,26 64.559,25.684 65.121,25.121C65.684,24.559 66,23.796 66,23C66,19.466 66,13.629 66,10.095C66,9.299 65.684,8.536 65.121,7.973C64.559,7.411 63.796,7.095 63,7.095C57.805,7.095 47.195,7.095 42,7.095C41.204,7.095 40.441,7.411 39.879,7.973C39.316,8.536 39,9.299 39,10.095C39,13.629 39,19.466 39,23C39,23.796 39.316,24.559 39.879,25.121C40.441,25.684 41.204,26 42,26C47.195,26 57.805,26 63,26Z"/>
    </g>
</svg>
