<?xml version="1.0" encoding="UTF-8" standalone="no"?>
<!DOCTYPE svg PUBLIC "-//W3C//DTD SVG 1.1//EN" "http://www.w3.org/Graphics/SVG/1.1/DTD/svg11.dtd">
<svg width="100%" height="100%" viewBox="0 0 72 72" version="1.1" xmlns="http://www.w3.org/2000/svg" xmlns:xlink="http://www.w3.org/1999/xlink" xml:space="preserve" xmlns:serif="http://www.serif.com/" style="fill-rule:evenodd;clip-rule:evenodd;stroke-linejoin:round;stroke-miterlimit:2;">
    <rect id="document_images" x="0" y="-0" width="72" height="72" style="fill:none;"/>
    <g>
        <path d="M22.877,39.75C25.963,39.75 28.503,37.211 28.503,34.125C28.503,31.039 25.963,28.499 22.877,28.499C19.791,28.499 17.251,31.039 17.251,34.125C17.251,37.211 19.791,39.75 22.877,39.75Z" style="fill-rule:nonzero;"/>
        <path d="M58.507,54.752C58.507,58.867 55.121,62.253 51.006,62.253L13.501,62.253C9.386,62.253 6,58.867 6,54.752L6,24.749C6,20.637 9.381,17.252 13.493,17.248C13.493,13.133 16.879,9.747 20.994,9.747L58.499,9.747C62.614,9.747 66,13.133 66,17.248L66,47.251C66,51.363 62.619,54.748 58.507,54.752ZM58.499,13.497L20.994,13.497C18.937,13.497 17.244,15.19 17.244,17.248L51.006,17.248C55.121,17.248 58.507,20.634 58.507,24.749L58.507,51.002C60.561,50.998 62.25,49.306 62.25,47.251L62.25,17.248C62.25,15.19 60.557,13.497 58.499,13.497ZM13.501,20.998C11.443,20.998 9.75,22.691 9.75,24.749L9.75,54.752L19.674,45.924C20.304,45.296 21.297,45.199 22.037,45.691L32.013,52.341L45.927,38.427C46.496,37.857 47.371,37.715 48.092,38.074L54.756,45.376L54.756,24.749C54.756,22.691 53.063,20.998 51.006,20.998L13.501,20.998Z" style="fill-rule:nonzero;"/>
    </g>
</svg>
