<?xml version="1.0" encoding="UTF-8" standalone="no"?>
<!DOCTYPE svg PUBLIC "-//W3C//DTD SVG 1.1//EN" "http://www.w3.org/Graphics/SVG/1.1/DTD/svg11.dtd">
<svg width="100%" height="100%" viewBox="0 0 72 72" version="1.1" xmlns="http://www.w3.org/2000/svg" xmlns:xlink="http://www.w3.org/1999/xlink" xml:space="preserve" xmlns:serif="http://www.serif.com/" style="fill-rule:evenodd;clip-rule:evenodd;stroke-linejoin:round;stroke-miterlimit:2;">
    <rect id="document_viewer" x="0" y="-0" width="72" height="72" style="fill:none;"/>
    <g>
        <path d="M61.385,11.769L10.615,11.769C9.349,11.769 8.308,12.811 8.308,14.077L8.308,60.231L17.538,55.615L26.769,60.231L36,55.615L45.231,60.231L54.462,55.615L63.692,60.231L63.692,14.077C63.692,12.811 62.651,11.769 61.385,11.769ZM31.385,44.077L17.538,44.077L17.538,25.615L31.385,25.615L31.385,44.077Z" style="fill-opacity:0.2;fill-rule:nonzero;"/>
        <path d="M61.385,9.461L10.615,9.461C8.085,9.464 6.003,11.546 6,14.077L6,60.231C6,60.231 6,60.231 6,60.231C6,61.497 7.042,62.539 8.308,62.539C8.666,62.539 9.019,62.455 9.34,62.295L17.538,58.195L25.737,62.295C26.386,62.62 27.152,62.62 27.801,62.295L36,58.195L44.199,62.295C44.848,62.619 45.614,62.619 46.263,62.295L54.462,58.195L62.66,62.295C62.981,62.455 63.334,62.539 63.692,62.539C64.958,62.539 66,61.497 66,60.231C66,60.231 66,60.231 66,60.231L66,14.077C65.997,11.546 63.915,9.464 61.385,9.461ZM61.385,56.497L55.494,53.551C54.844,53.226 54.079,53.226 53.429,53.551L45.231,57.651L37.032,53.551C36.383,53.227 35.617,53.227 34.968,53.551L26.769,57.651L18.571,53.551C17.921,53.226 17.156,53.226 16.506,53.551L10.615,56.497L10.615,14.077L61.385,14.077L61.385,56.497ZM38.308,30.231C38.308,28.965 39.349,27.923 40.615,27.923L54.462,27.923C55.728,27.923 56.769,28.965 56.769,30.231C56.769,31.497 55.728,32.538 54.462,32.538L40.615,32.538C39.349,32.538 38.308,31.497 38.308,30.231ZM38.308,39.461C38.308,38.196 39.349,37.154 40.615,37.154L54.462,37.154C55.728,37.154 56.769,38.196 56.769,39.461C56.769,40.727 55.728,41.769 54.462,41.769L40.615,41.769C39.349,41.769 38.308,40.727 38.308,39.461ZM17.538,46.385L31.385,46.385C32.651,46.385 33.692,45.343 33.692,44.077L33.692,25.615C33.692,24.349 32.651,23.308 31.385,23.308L17.538,23.308C16.273,23.308 15.231,24.349 15.231,25.615L15.231,44.077C15.231,45.343 16.273,46.385 17.538,46.385ZM19.846,27.923L29.077,27.923L29.077,41.769L19.846,41.769L19.846,27.923Z" style="fill-rule:nonzero;"/>
    </g>
</svg>
