<?xml version="1.0" encoding="UTF-8" standalone="no"?>
<!DOCTYPE svg PUBLIC "-//W3C//DTD SVG 1.1//EN" "http://www.w3.org/Graphics/SVG/1.1/DTD/svg11.dtd">
<svg width="100%" height="100%" viewBox="0 0 72 72" version="1.1" xmlns="http://www.w3.org/2000/svg" xmlns:xlink="http://www.w3.org/1999/xlink" xml:space="preserve" xmlns:serif="http://www.serif.com/" style="fill-rule:evenodd;clip-rule:evenodd;stroke-linejoin:round;stroke-miterlimit:2;">
    <rect id="document_on_disk" x="0" y="-0" width="72" height="72" style="fill:none;"/>
    <path d="M18.29,33.941C17.93,34.692 17.461,35.386 16.899,36C17.461,36.614 17.93,37.308 18.29,38.059C19.548,40.655 19.548,43.701 19.548,46.645C19.548,52.921 19.994,54.387 24.387,54.387C25.98,54.387 27.29,55.698 27.29,57.29C27.29,58.883 25.98,60.194 24.387,60.194C19.756,60.194 16.597,58.524 15,55.231C13.742,52.635 13.742,49.59 13.742,46.645C13.742,40.369 13.297,38.903 8.903,38.903C7.311,38.903 6,37.593 6,36C6,34.407 7.311,33.097 8.903,33.097C13.297,33.097 13.742,31.631 13.742,25.355C13.742,22.41 13.742,19.365 15,16.769C16.597,13.476 19.756,11.806 24.387,11.806C25.98,11.806 27.29,13.117 27.29,14.71C27.29,16.302 25.98,17.613 24.387,17.613C19.994,17.613 19.548,19.079 19.548,25.355C19.548,28.299 19.548,31.345 18.29,33.941ZM63.097,33.097C58.703,33.097 58.258,31.631 58.258,25.355C58.258,22.41 58.258,19.365 57,16.769C55.403,13.476 52.244,11.806 47.613,11.806C46.02,11.806 44.71,13.117 44.71,14.71C44.71,16.302 46.02,17.613 47.613,17.613C52.006,17.613 52.452,19.079 52.452,25.355C52.452,28.299 52.452,31.345 53.71,33.941C54.074,34.693 54.546,35.387 55.113,36C54.551,36.614 54.082,37.308 53.722,38.059C52.452,40.655 52.452,43.701 52.452,46.645C52.452,52.921 52.006,54.387 47.613,54.387C46.02,54.387 44.71,55.698 44.71,57.29C44.71,58.883 46.02,60.194 47.613,60.194C52.244,60.194 55.403,58.524 57,55.231C58.258,52.635 58.258,49.59 58.258,46.645C58.258,40.369 58.703,38.903 63.097,38.903C64.689,38.903 66,37.593 66,36C66,34.407 64.689,33.097 63.097,33.097Z" style="fill-rule:nonzero;"/>
</svg>
