<?xml version="1.0" encoding="UTF-8" standalone="no"?>
<!DOCTYPE svg PUBLIC "-//W3C//DTD SVG 1.1//EN" "http://www.w3.org/Graphics/SVG/1.1/DTD/svg11.dtd">
<svg width="100%" height="100%" viewBox="0 0 72 72" version="1.1" xmlns="http://www.w3.org/2000/svg" xmlns:xlink="http://www.w3.org/1999/xlink" xml:space="preserve" xmlns:serif="http://www.serif.com/" style="fill-rule:evenodd;clip-rule:evenodd;stroke-linejoin:round;stroke-miterlimit:2;">
    <rect id="expand_on" x="0" y="-0" width="72" height="72" style="fill:none;"/>
    <path d="M66,36C66,39.798 62.875,42.923 59.077,42.923L42.923,42.923L42.923,59.077C42.923,62.875 39.798,66 36,66C32.202,66 29.077,62.875 29.077,59.077L29.077,42.923L12.923,42.923C9.125,42.923 6,39.798 6,36C6,32.202 9.125,29.077 12.923,29.077L29.077,29.077L29.077,12.923C29.077,9.125 32.202,6 36,6C39.798,6 42.923,9.125 42.923,12.923L42.923,29.077L59.077,29.077C62.875,29.077 66,32.202 66,36Z" style="fill-rule:nonzero;"/>
</svg>
