<?xml version="1.0" encoding="UTF-8" standalone="no"?>
<!DOCTYPE svg PUBLIC "-//W3C//DTD SVG 1.1//EN" "http://www.w3.org/Graphics/SVG/1.1/DTD/svg11.dtd">
<svg width="100%" height="100%" viewBox="0 0 72 72" version="1.1" xmlns="http://www.w3.org/2000/svg" xmlns:xlink="http://www.w3.org/1999/xlink" xml:space="preserve" xmlns:serif="http://www.serif.com/" style="fill-rule:evenodd;clip-rule:evenodd;stroke-linejoin:round;stroke-miterlimit:2;">
    <rect id="items_up" x="0" y="-0" width="72" height="72" style="fill:none;"/>
    <path d="M60.27,29.229L37.768,6.727C36.798,5.758 35.202,5.758 34.232,6.727L11.73,29.229C11.262,29.698 10.998,30.334 10.998,30.997C10.998,32.369 12.127,33.497 13.498,33.497C14.161,33.497 14.797,33.234 15.266,32.765L33.5,14.531L33.5,63.5C33.5,64.871 34.628,66 36,66C37.372,66 38.5,64.871 38.5,63.5L38.5,14.531L56.734,32.765C57.203,33.234 57.839,33.497 58.502,33.497C59.873,33.497 61.002,32.369 61.002,30.997C61.002,30.334 60.738,29.698 60.27,29.229Z" style="fill-rule:nonzero;"/>
</svg>
