<?xml version="1.0" encoding="UTF-8" standalone="no"?>
<!DOCTYPE svg PUBLIC "-//W3C//DTD SVG 1.1//EN" "http://www.w3.org/Graphics/SVG/1.1/DTD/svg11.dtd">
<svg width="100%" height="100%" viewBox="0 0 72 72" version="1.1" xmlns="http://www.w3.org/2000/svg" xmlns:xlink="http://www.w3.org/1999/xlink" xml:space="preserve" xmlns:serif="http://www.serif.com/" style="fill-rule:evenodd;clip-rule:evenodd;stroke-linejoin:round;stroke-miterlimit:2;">
    <rect id="removable" x="0" y="-0" width="72" height="72" style="fill:none;"/>
    <path d="M31.97,64.339C30.863,63.233 30.31,61.89 30.31,60.31C30.31,59.234 30.608,58.245 31.204,57.343C31.8,56.44 32.586,55.754 33.561,55.283L33.561,47.117L23.807,47.117C22.165,47.117 20.775,46.548 19.637,45.41C18.499,44.272 17.93,42.882 17.93,41.239L17.93,34.074C16.975,33.67 16.195,33.027 15.589,32.145C14.982,31.263 14.678,30.231 14.678,29.047C14.678,27.467 15.232,26.124 16.339,25.017C17.446,23.91 18.789,23.357 20.368,23.357C21.948,23.357 23.292,23.91 24.398,25.017C25.505,26.124 26.058,27.467 26.058,29.047C26.058,30.231 25.755,31.247 25.149,32.095C24.542,32.943 23.762,33.603 22.807,34.074L22.807,41.239C22.807,41.49 22.911,41.719 23.12,41.927C23.328,42.135 23.558,42.24 23.807,42.24L33.561,42.24L33.561,15.854L30.811,15.854C30.223,15.854 29.787,15.587 29.504,15.053C29.22,14.52 29.264,14.003 29.635,13.503L34.825,6.588C35.129,6.196 35.52,6 36,6C36.48,6 36.871,6.196 37.175,6.588L42.365,13.503C42.736,14.003 42.78,14.52 42.496,15.053C42.213,15.587 41.777,15.854 41.189,15.854L38.439,15.854L38.439,42.24L48.193,42.24C48.442,42.24 48.672,42.135 48.88,41.927C49.089,41.719 49.193,41.49 49.193,41.239L49.193,34.736L47.411,34.736C47.019,34.736 46.676,34.59 46.382,34.296C46.089,34.002 45.942,33.659 45.942,33.268L45.942,24.826C45.942,24.434 46.089,24.092 46.382,23.798C46.676,23.504 47.019,23.357 47.411,23.357L55.852,23.357C56.244,23.357 56.587,23.504 56.88,23.798C57.175,24.092 57.322,24.434 57.322,24.826L57.322,33.268C57.322,33.659 57.175,34.002 56.88,34.296C56.587,34.59 56.244,34.736 55.852,34.736L54.07,34.736L54.07,41.239C54.07,42.882 53.501,44.272 52.363,45.41C51.225,46.548 49.835,47.117 48.193,47.117L38.439,47.117L38.439,55.283C39.447,55.721 40.241,56.391 40.821,57.293C41.4,58.196 41.69,59.201 41.69,60.31C41.69,61.89 41.137,63.233 40.03,64.339C38.923,65.446 37.58,66 36,66C34.42,66 33.077,65.446 31.97,64.339Z" style="fill:rgb(31,31,31);fill-rule:nonzero;"/>
</svg>
