<?xml version="1.0" encoding="UTF-8" standalone="no"?>
<!DOCTYPE svg PUBLIC "-//W3C//DTD SVG 1.1//EN" "http://www.w3.org/Graphics/SVG/1.1/DTD/svg11.dtd">
<svg width="100%" height="100%" viewBox="0 0 72 72" version="1.1" xmlns="http://www.w3.org/2000/svg" xmlns:xlink="http://www.w3.org/1999/xlink" xml:space="preserve" xmlns:serif="http://www.serif.com/" style="fill-rule:evenodd;clip-rule:evenodd;stroke-linejoin:round;stroke-miterlimit:2;">
    <rect id="tc_convert_with_backup" x="0" y="0" width="72" height="72" style="fill:none;"/>
    <path d="M23.962,44.182L7.164,44.182C6.423,41.577 6,38.839 6,36C6,33.161 6.423,30.423 7.164,27.818L23.962,27.818L23.163,28.617C22.096,29.684 22.096,31.407 23.163,32.474C23.694,33.006 24.393,33.273 25.091,33.273C25.789,33.273 26.487,33.006 27.019,32.474L32.471,27.022C32.724,26.768 32.924,26.468 33.063,26.133C33.338,25.467 33.338,24.715 33.063,24.049C32.924,23.714 32.724,23.414 32.471,23.16L27.019,17.708C25.953,16.642 24.229,16.642 23.163,17.708C22.096,18.775 22.096,20.498 23.163,21.565L23.962,22.364L9.311,22.364C14.288,12.666 24.371,6 36,6C52.541,6 66,19.459 66,36C66,52.541 52.541,66 36,66C24.371,66 14.288,59.334 9.311,49.636L23.962,49.636L23.163,50.436C22.096,51.502 22.096,53.226 23.163,54.292C23.694,54.824 24.393,55.091 25.091,55.091C25.789,55.091 26.487,54.824 27.019,54.292L32.471,48.84C32.724,48.587 32.924,48.287 33.063,47.951C33.338,47.286 33.338,46.533 33.063,45.867C32.924,45.532 32.724,45.232 32.471,44.978L27.019,39.527C25.953,38.46 24.229,38.46 23.163,39.527C22.096,40.593 22.096,42.317 23.163,43.383L23.962,44.182Z" style="fill-rule:nonzero;"/>
</svg>
