<?xml version="1.0" encoding="UTF-8" standalone="no"?>
<!DOCTYPE svg PUBLIC "-//W3C//DTD SVG 1.1//EN" "http://www.w3.org/Graphics/SVG/1.1/DTD/svg11.dtd">
<svg width="100%" height="100%" viewBox="0 0 72 72" version="1.1" xmlns="http://www.w3.org/2000/svg" xmlns:xlink="http://www.w3.org/1999/xlink" xml:space="preserve" xmlns:serif="http://www.serif.com/" style="fill-rule:evenodd;clip-rule:evenodd;stroke-linejoin:round;stroke-miterlimit:2;">
    <rect id="theme_light" x="0" y="-0" width="72" height="72" style="fill:none;"/>
    <path d="M26.429,58.857L18.857,58.857C17.286,58.857 15.94,58.298 14.821,57.179C13.702,56.06 13.143,54.714 13.143,53.143L13.143,45.571L7.643,40C7.119,39.429 6.714,38.798 6.429,38.107C6.143,37.417 6,36.714 6,36C6,35.286 6.143,34.583 6.429,33.893C6.714,33.202 7.119,32.571 7.643,32L13.143,26.429L13.143,18.857C13.143,17.286 13.702,15.94 14.821,14.821C15.94,13.702 17.286,13.143 18.857,13.143L26.429,13.143L32,7.643C32.571,7.119 33.202,6.714 33.893,6.429C34.583,6.143 35.286,6 36,6C36.714,6 37.417,6.143 38.107,6.429C38.798,6.714 39.429,7.119 40,7.643L45.571,13.143L53.143,13.143C54.714,13.143 56.06,13.702 57.179,14.821C58.298,15.94 58.857,17.286 58.857,18.857L58.857,26.429L64.357,32C64.881,32.571 65.286,33.202 65.571,33.893C65.857,34.583 66,35.286 66,36C66,36.714 65.857,37.417 65.571,38.107C65.286,38.798 64.881,39.429 64.357,40L58.857,45.571L58.857,53.143C58.857,54.714 58.298,56.06 57.179,57.179C56.06,58.298 54.714,58.857 53.143,58.857L45.571,58.857L40,64.357C39.429,64.881 38.798,65.286 38.107,65.571C37.417,65.857 36.714,66 36,66C35.286,66 34.583,65.857 33.893,65.571C33.202,65.286 32.571,64.881 32,64.357L26.429,58.857ZM46.107,46.107C48.893,43.321 50.286,39.952 50.286,36C50.286,32.048 48.893,28.679 46.107,25.893C43.321,23.107 39.952,21.714 36,21.714C32.048,21.714 28.679,23.107 25.893,25.893C23.107,28.679 21.714,32.048 21.714,36C21.714,39.952 23.107,43.321 25.893,46.107C28.679,48.893 32.048,50.286 36,50.286C39.952,50.286 43.321,48.893 46.107,46.107ZM29.929,42.071C28.262,40.405 27.429,38.381 27.429,36C27.429,33.619 28.262,31.595 29.929,29.929C31.595,28.262 33.619,27.429 36,27.429C38.381,27.429 40.405,28.262 42.071,29.929C43.738,31.595 44.571,33.619 44.571,36C44.571,38.381 43.738,40.405 42.071,42.071C40.405,43.738 38.381,44.571 36,44.571C33.619,44.571 31.595,43.738 29.929,42.071ZM28.857,53.143L36,60.286L43.143,53.143L53.143,53.143L53.143,43.143L60.286,36L53.143,28.857L53.143,18.857L43.143,18.857L36,11.714L28.857,18.857L18.857,18.857L18.857,28.857L11.714,36L18.857,43.143L18.857,53.143L28.857,53.143Z" style="fill-rule:nonzero;"/>
</svg>
