<?xml version="1.0" encoding="UTF-8" standalone="no"?>
<!DOCTYPE svg PUBLIC "-//W3C//DTD SVG 1.1//EN" "http://www.w3.org/Graphics/SVG/1.1/DTD/svg11.dtd">
<svg width="100%" height="100%" viewBox="0 0 72 72" version="1.1" xmlns="http://www.w3.org/2000/svg" xmlns:xlink="http://www.w3.org/1999/xlink" xml:space="preserve" xmlns:serif="http://www.serif.com/" style="fill-rule:evenodd;clip-rule:evenodd;stroke-linejoin:round;stroke-miterlimit:2;">
    <rect id="theme_dark" x="0" y="-0" width="72" height="72" style="fill:none;"/>
    <path d="M36.857,50.286C40.81,50.286 44.179,48.893 46.964,46.107C49.75,43.321 51.143,39.952 51.143,36C51.143,32.048 49.75,28.679 46.964,25.893C44.179,23.107 40.81,21.714 36.857,21.714L35.679,21.714C35.274,21.714 34.881,21.762 34.5,21.857C33.786,22 33.333,22.417 33.143,23.107C32.952,23.798 33.119,24.333 33.643,24.714C35.452,26.048 36.833,27.702 37.786,29.679C38.738,31.655 39.214,33.762 39.214,36C39.214,38.286 38.762,40.44 37.857,42.464C36.952,44.488 35.548,46.095 33.643,47.286C33.071,47.667 32.869,48.202 33.036,48.893C33.202,49.583 33.69,49.976 34.5,50.071C34.881,50.167 35.274,50.226 35.679,50.25C36.083,50.274 36.476,50.286 36.857,50.286ZM26.429,58.857L18.857,58.857C17.286,58.857 15.94,58.298 14.821,57.179C13.702,56.06 13.143,54.714 13.143,53.143L13.143,45.571L7.643,40C7.119,39.429 6.714,38.798 6.429,38.107C6.143,37.417 6,36.714 6,36C6,35.286 6.143,34.583 6.429,33.893C6.714,33.202 7.119,32.571 7.643,32L13.143,26.429L13.143,18.857C13.143,17.286 13.702,15.94 14.821,14.821C15.94,13.702 17.286,13.143 18.857,13.143L26.429,13.143L32,7.643C32.571,7.119 33.202,6.714 33.893,6.429C34.583,6.143 35.286,6 36,6C36.714,6 37.417,6.143 38.107,6.429C38.798,6.714 39.429,7.119 40,7.643L45.571,13.143L53.143,13.143C54.714,13.143 56.06,13.702 57.179,14.821C58.298,15.94 58.857,17.286 58.857,18.857L58.857,26.429L64.357,32C64.881,32.571 65.286,33.202 65.571,33.893C65.857,34.583 66,35.286 66,36C66,36.714 65.857,37.417 65.571,38.107C65.286,38.798 64.881,39.429 64.357,40L58.857,45.571L58.857,53.143C58.857,54.714 58.298,56.06 57.179,57.179C56.06,58.298 54.714,58.857 53.143,58.857L45.571,58.857L40,64.357C39.429,64.881 38.798,65.286 38.107,65.571C37.417,65.857 36.714,66 36,66C35.286,66 34.583,65.857 33.893,65.571C33.202,65.286 32.571,64.881 32,64.357L26.429,58.857ZM28.857,53.143L36,60.286L43.143,53.143L53.143,53.143L53.143,43.143L60.286,36L53.143,28.857L53.143,18.857L43.143,18.857L36,11.714L28.857,18.857L18.857,18.857L18.857,28.857L11.714,36L18.857,43.143L18.857,53.143L28.857,53.143Z" style="fill-rule:nonzero;"/>
</svg>
