<?xml version="1.0" encoding="UTF-8" standalone="no"?>
<!DOCTYPE svg PUBLIC "-//W3C//DTD SVG 1.1//EN" "http://www.w3.org/Graphics/SVG/1.1/DTD/svg11.dtd">
<svg width="100%" height="100%" viewBox="0 0 72 72" version="1.1" xmlns="http://www.w3.org/2000/svg" xmlns:xlink="http://www.w3.org/1999/xlink" xml:space="preserve" xmlns:serif="http://www.serif.com/" style="fill-rule:evenodd;clip-rule:evenodd;stroke-linejoin:round;stroke-miterlimit:2;">
    <rect id="theme_auto" x="0" y="-0" width="72" height="72" style="fill:none;"/>
    <path d="M30.857,40.857L41.286,40.857L43.071,46.071C43.214,46.452 43.464,46.774 43.821,47.036C44.179,47.298 44.571,47.429 45,47.429C45.714,47.429 46.274,47.131 46.679,46.536C47.083,45.94 47.167,45.31 46.929,44.643L38.786,23.071C38.643,22.643 38.381,22.31 38,22.071C37.619,21.833 37.214,21.714 36.786,21.714L35.214,21.714C34.786,21.714 34.381,21.833 34,22.071C33.619,22.31 33.357,22.643 33.214,23.071L25.071,44.571C24.833,45.238 24.917,45.881 25.321,46.5C25.726,47.119 26.31,47.429 27.071,47.429C27.548,47.429 27.964,47.298 28.321,47.036C28.679,46.774 28.929,46.429 29.071,46L30.857,40.857ZM32.143,37.143L35.857,26.429L36.143,26.429L39.857,37.143L32.143,37.143ZM26.429,58.857L18.857,58.857C17.286,58.857 15.94,58.298 14.821,57.179C13.702,56.06 13.143,54.714 13.143,53.143L13.143,45.571L7.643,40C7.119,39.429 6.714,38.798 6.429,38.107C6.143,37.417 6,36.714 6,36C6,35.286 6.143,34.583 6.429,33.893C6.714,33.202 7.119,32.571 7.643,32L13.143,26.429L13.143,18.857C13.143,17.286 13.702,15.94 14.821,14.821C15.94,13.702 17.286,13.143 18.857,13.143L26.429,13.143L32,7.643C32.571,7.119 33.202,6.714 33.893,6.429C34.583,6.143 35.286,6 36,6C36.714,6 37.417,6.143 38.107,6.429C38.798,6.714 39.429,7.119 40,7.643L45.571,13.143L53.143,13.143C54.714,13.143 56.06,13.702 57.179,14.821C58.298,15.94 58.857,17.286 58.857,18.857L58.857,26.429L64.357,32C64.881,32.571 65.286,33.202 65.571,33.893C65.857,34.583 66,35.286 66,36C66,36.714 65.857,37.417 65.571,38.107C65.286,38.798 64.881,39.429 64.357,40L58.857,45.571L58.857,53.143C58.857,54.714 58.298,56.06 57.179,57.179C56.06,58.298 54.714,58.857 53.143,58.857L45.571,58.857L40,64.357C39.429,64.881 38.798,65.286 38.107,65.571C37.417,65.857 36.714,66 36,66C35.286,66 34.583,65.857 33.893,65.571C33.202,65.286 32.571,64.881 32,64.357L26.429,58.857ZM28.857,53.143L36,60.286L43.143,53.143L53.143,53.143L53.143,43.143L60.286,36L53.143,28.857L53.143,18.857L43.143,18.857L36,11.714L28.857,18.857L18.857,18.857L18.857,28.857L11.714,36L18.857,43.143L18.857,53.143L28.857,53.143Z" style="fill:rgb(31,31,31);fill-rule:nonzero;"/>
</svg>
