<?xml version="1.0" encoding="UTF-8" standalone="no"?><!DOCTYPE svg PUBLIC "-//W3C//DTD SVG 1.1//EN" "http://www.w3.org/Graphics/SVG/1.1/DTD/svg11.dtd"><svg width="100%" height="100%" viewBox="0 0 24 24" version="1.1" xmlns="http://www.w3.org/2000/svg" xmlns:xlink="http://www.w3.org/1999/xlink" xml:space="preserve" xmlns:serif="http://www.serif.com/" style="fill-rule:evenodd;clip-rule:evenodd;stroke-linejoin:round;stroke-miterlimit:2;"><rect id="logo" x="0" y="0" width="24" height="24" style="fill:none;"/><path d="M24,3l0,18c0,1.656 -1.344,3 -3,3l-18,0c-1.656,0 -3,-1.344 -3,-3l0,-18c0,-1.656 1.344,-3 3,-3l18,0c1.656,0 3,1.344 3,3Z" style="fill:#37474f;"/><path d="M20.4,6c-0,0.552 -0.448,1 -1,1l-15.4,0c-0.552,0 -1,-0.448 -1,-1c-0,-0.552 0.448,-1 1,-1l15.4,0c0.552,0 1,0.448 1,1Z" style="fill:#fff;fill-opacity:0.5;"/><path d="M14.6,12c0,0.552 -0.448,1 -1,1l-9.6,0c-0.552,0 -1,-0.448 -1,-1c0,-0.552 0.448,-1 1,-1l9.6,0c0.552,0 1,0.448 1,1Z" style="fill:#fff;fill-opacity:0.5;"/><path d="M21,18c0,0.552 -0.448,1 -1,1l-16,0c-0.552,0 -1,-0.448 -1,-1c0,-0.552 0.448,-1 1,-1l16,0c0.552,0 1,0.448 1,1Z" style="fill:#fff;fill-opacity:0.15;"/><path d="M17.5,18c0,0.552 -0.448,1 -1,1l-12.5,0c-0.552,0 -1,-0.448 -1,-1c0,-0.552 0.448,-1 1,-1l12.5,0c0.552,0 1,0.448 1,1Z" style="fill:#f4511e;"/></svg>